HIERARCHY
ROOT pelvis
{
  OFFSET 0 100 0
  CHANNELS 6 Xposition Yposition Zposition Zrotation Xrotation Yrotation
  JOINT pelvis_right_femur
  {
    OFFSET -10.78128 -3.44521 -0.5502486
    CHANNELS 3 Zrotation Xrotation Yrotation
    JOINT right_femur_tibia
    {
      OFFSET -0.8047443 -44.0398 -0.1307829
      CHANNELS 3 Zrotation Xrotation Yrotation
      JOINT right_tibia_foot
      {
        OFFSET 3.006224 -47.83518 -5
        CHANNELS 3 Zrotation Xrotation Yrotation
        End Site
        {
          OFFSET 0 -5 15
        }
      }
    }
  }
  JOINT pelvis_left_femur
  {
    OFFSET 10.78128 -3.44521 -0.5502486
    CHANNELS 3 Zrotation Xrotation Yrotation
    JOINT left_femur_tibia
    {
      OFFSET 0.8047443 -44.0398 -0.1307829
      CHANNELS 3 Zrotation Xrotation Yrotation
      JOINT left_tibia_foot
      {
        OFFSET -4.370144 -48.10324 -4.275266
        CHANNELS 3 Zrotation Xrotation Yrotation
        End Site
        {
          OFFSET 0 -5 15
        }
      }
    }
  }
  JOINT pelvis_spine1
  {
    OFFSET 0 6.468898 -3.129235
    CHANNELS 3 Zrotation Xrotation Yrotation
    JOINT spine1
    {
      OFFSET 0 23.15396 4.99043
      CHANNELS 3 Zrotation Xrotation Yrotation
      JOINT spine2
      {
        OFFSET 0 20.79997 -5.064912
        CHANNELS 3 Zrotation Xrotation Yrotation
        JOINT neck
        {
          OFFSET 0 14.38658 9.616178
          CHANNELS 3 Zrotation Xrotation Yrotation
          End Site
          {
            OFFSET 0 20 0
          }
        }
      }
      JOINT right_manubrium
      {
        OFFSET -5.722621 16.35077 3.967754
        CHANNELS 3 Zrotation Xrotation Yrotation
        JOINT right_clavicle
        {
          OFFSET -13.16364 1.694482 -4.693211
          CHANNELS 3 Zrotation Xrotation Yrotation
          JOINT right_humerus
          {
            OFFSET -28.5034 -0.3100689 -2.792744
            CHANNELS 3 Zrotation Xrotation Yrotation
            JOINT right_radius
            {
              OFFSET -25.15693 0.02248979 -1.271978
              CHANNELS 3 Zrotation Xrotation Yrotation
              End Site
              {
                OFFSET -15 0 0
              }
            }
          }
        }
      }
      JOINT left_manubrium
      {
        OFFSET 5.722621 16.35077 3.967754
        CHANNELS 3 Zrotation Xrotation Yrotation
        JOINT left_clavicle
        {
          OFFSET 13.16364 1.694482 -4.693211
          CHANNELS 3 Zrotation Xrotation Yrotation
          JOINT left_humerus
          {
            OFFSET 29.39168 -1.063119 -2.237045
            CHANNELS 3 Zrotation Xrotation Yrotation
            JOINT left_radius
            {
              OFFSET 24.59957 -0.9528479 0.9047498
              CHANNELS 3 Zrotation Xrotation Yrotation
              End Site
              {
                OFFSET 15 -0 -0
              }
            }
          }
        }
      }
    }
  }
}
MOTION
Frames: 9
Frame Time: 0.0416666666667
-546.8597 116.3476 2339.04 -9.056998 -14.08775 -51.41954 -6.257503 17.95599 -2.318423 -0 40.85645 -0 -14.71276 -9.500125 0.007228955 -8.047064 10.67835 -24.87154 -0 7.381263 -0 -4.227617 -10.71946 20.63871 -0.7194741 -1.780427 6.930834 -1.950177 15.19608 -5.042487 -0.4099693 20.47715 6.408041 8.90211 -12.7334 0.5302777 4.543675 -22.31659 12.28956 85.43635 27.91967 -14.68607 -0 0 21.25126 -24.63136 9.456194 7.950228 6.663758 -27.40799 -11.40905 -91.82673 4.694326 25.69203 0 0 -6.911599 13.05756 10.98542 -3.573394
-548.6001 116.5171 2341.242 -8.190879 -12.9839 -50.68722 -5.55916 14.17638 -0.9224249 -0 43.25056 -0 -13.6945 -9.550068 -0.6372245 -7.734957 11.67012 -25.26421 -0 7.638463 -0 -5.197116 -12.49406 20.76094 -0.7995864 -1.801798 6.797877 -2.100566 15.44054 -5.146707 -0.3961197 20.36687 6.412834 9.199983 -12.52659 0.2830765 4.874389 -21.95328 12.30468 85.56345 28.29114 -15.26687 -0 0 20.99395 -24.91381 9.567656 7.772786 6.96876 -27.83318 -11.6763 -91.31387 4.273268 24.5982 0 0 -8.009595 13.41167 10.82761 -4.105693
-550.1314 116.7465 2343.132 -7.271779 -11.51797 -49.98816 -4.432436 9.630148 0.4038715 -0 44.59124 -0 -12.58848 -9.909732 -1.356601 -7.307997 12.3247 -25.20989 -0 7.675618 -0 -5.497233 -14.08654 20.91343 -0.8959898 -1.842778 6.669885 -2.243511 15.66831 -5.248514 -0.3849352 20.2546 6.414766 9.481023 -12.31521 0.04219896 5.199375 -21.62443 12.31271 85.66739 28.67501 -15.8018 -0 0 20.79179 -25.1914 9.688192 7.635918 7.275654 -28.23727 -11.91289 -90.81165 3.849238 23.53869 0 0 -9.127922 13.75351 10.6652 -4.617511
-551.5277 116.9885 2344.802 -6.340389 -9.858822 -49.37462 -3.084366 4.709171 1.518802 -0 44.71564 -0 -11.53404 -10.37921 -1.978873 -6.87898 12.66763 -24.80083 -0 7.520512 -0 -5.160338 -15.47244 21.1016 -1.005911 -1.894986 6.54224 -2.376721 15.8649 -5.338688 -0.3702766 20.15483 6.415057 9.729988 -12.11617 -0.1699497 5.501676 -21.3294 12.30998 85.74796 29.05929 -16.26277 -0 0 20.62912 -25.45897 9.813802 7.548384 7.576706 -28.59223 -12.10173 -90.33465 3.45641 22.52512 0 0 -10.21334 14.07876 10.52197 -5.104105
-552.8592 117.1943 2346.344 -5.428207 -8.171454 -48.87586 -1.708826 -0.23016 2.378077 -0 43.73843 -0 -10.61389 -10.77309 -2.415447 -6.518586 12.78014 -24.16204 -0 7.240849 -0 -4.330955 -16.65779 21.30943 -1.12521 -1.950775 6.411779 -2.497784 16.02451 -5.415031 -0.3490155 20.07549 6.41405 9.93856 -11.94246 -0.3412356 5.770044 -21.06454 12.29625 85.81168 29.43387 -16.64445 -0 0 20.48918 -25.70939 9.940117 7.506289 7.866732 -28.88637 -12.23714 -89.88663 3.114399 21.55704 0 0 -11.2436 14.39023 10.41098 -5.572102
-554.1836 117.3221 2347.84 -4.551614 -6.566121 -48.50037 -0.4272548 -4.956837 3.001797 -0 41.9148 -0 -9.850451 -10.98357 -2.656675 -6.251902 12.7544 -23.40409 -0 6.908974 -0 -3.186933 -17.67083 21.51443 -1.24951 -2.004708 6.277575 -2.604161 16.14739 -5.480146 -0.3209261 20.01865 6.411531 10.10405 -11.80235 -0.4684014 5.998125 -20.82618 12.27342 85.86782 29.79066 -16.95623 -0 0 20.35891 -25.93473 10.06249 7.498672 8.142582 -29.12038 -12.32138 -89.46513 2.830303 20.62967 0 0 -12.21944 14.69334 10.33507 -6.031952
-555.5456 117.3403 2349.35 -3.713197 -5.093084 -48.24148 0.7104209 -9.372322 3.429917 -0 39.49454 -0 -9.232339 -10.97046 -2.731226 -6.076236 12.66544 -22.59866 -0 6.580891 -0 -1.873952 -18.54818 21.69748 -1.374676 -2.053203 6.140258 -2.693405 16.2361 -5.538255 -0.2874063 19.98341 6.4073 10.22677 -11.70086 -0.5527693 6.182294 -20.61144 12.244 85.92538 30.12264 -17.21248 -0 0 20.22906 -26.12754 10.17627 7.512995 8.402117 -29.30036 -12.36006 -89.06612 2.604903 19.73898 0 0 -13.15074 14.99265 10.2914 -6.492441
-556.982 117.2266 2350.92 -2.907089 -3.763087 -48.08263 1.697287 -13.4663 3.697904 -0 36.65764 -0 -8.737999 -10.72653 -2.674316 -5.978747 12.56643 -21.78129 -0 6.295725 -0 -0.4880844 -19.3242 21.8443 -1.496899 -2.093793 6.001149 -2.763403 16.29333 -5.593229 -0.2503985 19.96795 6.401515 10.30825 -11.64107 -0.5971165 6.320244 -20.41805 12.2103 85.99172 30.42329 -17.42711 -0 0 20.0927 -26.28168 10.2771 7.538008 8.643558 -29.4334 -12.35928 -88.68652 2.43707 18.8833 0 0 -14.04739 15.29055 10.27525 -6.958644
-558.5253 116.9662 2352.588 -2.124739 -2.568687 -48.00076 2.544573 -17.26813 3.830318 -0 33.51531 -0 -8.347599 -10.25148 -2.514856 -5.945702 12.49547 -20.9641 -0 6.085187 -0 0.9119009 -20.02579 21.94259 -1.612643 -2.12472 5.861832 -2.812535 16.32141 -5.648 -0.2119043 19.97029 6.39471 10.35065 -11.62473 -0.604571 6.41056 -20.24399 12.1742 86.0724 30.68635 -17.61203 -0 0 19.94431 -26.39264 10.36112 7.564467 8.865242 -29.52612 -12.32497 -88.32478 2.325255 18.06332 0 0 -14.91602 15.58717 10.28162 -7.431839
